<svg width="25" height="18" viewBox="0 0 25 18" fill="none" xmlns="http://www.w3.org/2000/svg">
<path d="M0.5 3C0.5 2.20435 0.816071 1.44129 1.37868 0.87868C1.94129 0.31607 2.70435 0 3.5 0H21.5C22.2956 0 23.0587 0.31607 23.6213 0.87868C24.1839 1.44129 24.5 2.20435 24.5 3V15C24.5 15.7956 24.1839 16.5587 23.6213 17.1213C23.0587 17.6839 22.2956 18 21.5 18H3.5C2.70435 18 1.94129 17.6839 1.37868 17.1213C0.816071 16.5587 0.5 15.7956 0.5 15V3ZM3.5 1.5C3.10218 1.5 2.72064 1.65804 2.43934 1.93934C2.15804 2.22064 2 2.60218 2 3V4.5H23V3C23 2.60218 22.842 2.22064 22.5607 1.93934C22.2794 1.65804 21.8978 1.5 21.5 1.5H3.5ZM23 7.5H2V15C2 15.3978 2.15804 15.7794 2.43934 16.0607C2.72064 16.342 3.10218 16.5 3.5 16.5H21.5C21.8978 16.5 22.2794 16.342 22.5607 16.0607C22.842 15.7794 23 15.3978 23 15V7.5Z" fill="#FE8209"/>
<path d="M3.5 12C3.5 11.6022 3.65804 11.2206 3.93934 10.9393C4.22064 10.658 4.60218 10.5 5 10.5H6.5C6.89782 10.5 7.27936 10.658 7.56066 10.9393C7.84196 11.2206 8 11.6022 8 12V13.5C8 13.8978 7.84196 14.2794 7.56066 14.5607C7.27936 14.842 6.89782 15 6.5 15H5C4.60218 15 4.22064 14.842 3.93934 14.5607C3.65804 14.2794 3.5 13.8978 3.5 13.5V12Z" fill="#FE8209"/>
</svg>
