<svg width="25" height="24" viewBox="0 0 25 24" fill="none" xmlns="http://www.w3.org/2000/svg">
<path fill-rule="evenodd" clip-rule="evenodd" d="M2 0C1.60218 0 1.22064 0.158035 0.93934 0.43934C0.658035 0.720644 0.5 1.10218 0.5 1.5V13.5C0.5 13.8978 0.658035 14.2794 0.93934 14.5607C1.22064 14.842 1.60218 15 2 15H8.1245C8.2115 14.484 8.342 13.983 8.5115 13.5H5C5 12.7044 4.68393 11.9413 4.12132 11.3787C3.55871 10.8161 2.79565 10.5 2 10.5V4.5C2.79565 4.5 3.55871 4.18393 4.12132 3.62132C4.68393 3.05871 5 2.29565 5 1.5H20C20 2.29565 20.3161 3.05871 20.8787 3.62132C21.4413 4.18393 22.2044 4.5 23 4.5V9.792C23.57 10.302 24.0755 10.884 24.5 11.523V1.5C24.5 1.10218 24.342 0.720644 24.0607 0.43934C23.7794 0.158035 23.3978 0 23 0H2ZM21.2426 20.7426C20.1174 21.8679 18.5913 22.5 17 22.5C15.4087 22.5 13.8826 21.8679 12.7574 20.7426C11.6321 19.6174 11 18.0913 11 16.5C11 14.9087 11.6321 13.3826 12.7574 12.2574C13.8826 11.1321 15.4087 10.5 17 10.5C18.5913 10.5 20.1174 11.1321 21.2426 12.2574C22.3679 13.3826 23 14.9087 23 16.5C23 18.0913 22.3679 19.6174 21.2426 20.7426ZM22.3033 21.8033C23.7098 20.3968 24.5 18.4891 24.5 16.5C24.5 14.5109 23.7098 12.6032 22.3033 11.1967C20.8968 9.79018 18.9891 9 17 9C15.0109 9 13.1032 9.79018 11.6967 11.1967C10.2902 12.6032 9.5 14.5109 9.5 16.5C9.5 18.4891 10.2902 20.3968 11.6967 21.8033C13.1032 23.2098 15.0109 24 17 24C18.9891 24 20.8968 23.2098 22.3033 21.8033ZM16.7022 19.59C15.4347 19.506 14.7282 18.81 14.6577 17.916H15.6582C15.7437 18.3555 16.1262 18.6735 16.7022 18.7605V16.8525L16.3302 16.761C15.3868 16.542 14.8197 16.005 14.8197 15.162C14.8197 14.208 15.5817 13.5345 16.7022 13.425V12.75H17.2647V13.4085C18.4482 13.482 19.1877 14.1555 19.2582 15.018H18.2712C18.1857 14.592 17.8287 14.2845 17.2647 14.22V16.02L17.7087 16.125C18.7587 16.371 19.3438 16.848 19.3438 17.775C19.3438 18.792 18.5772 19.494 17.2647 19.5855V20.25H16.7022V19.59ZM15.8442 15.102C15.8442 15.495 16.1442 15.7575 16.6978 15.885H16.7022V14.235C16.1682 14.331 15.8442 14.661 15.8442 15.102ZM18.3283 17.8575C18.3283 17.412 18.0192 17.16 17.3457 17.004L17.2647 16.986V18.7785C17.9427 18.714 18.3283 18.366 18.3283 17.8575ZM15.5 7.49978L15.497 7.62428C13.7326 7.92214 12.0976 8.74069 10.802 9.97478C10.3761 9.68238 10.0329 9.28495 9.80572 8.82098C9.57851 8.35701 9.47497 7.84223 9.50511 7.3265C9.53526 6.81077 9.69808 6.31156 9.97779 5.87723C10.2575 5.44289 10.6446 5.08815 11.1017 4.84736C11.5588 4.60657 12.0703 4.48789 12.5867 4.50282C13.1031 4.51774 13.6069 4.66577 14.0493 4.93256C14.4917 5.19934 14.8577 5.57585 15.1118 6.02562C15.366 6.47539 15.4997 6.98317 15.5 7.49978Z" fill="#FE8209"/>
</svg>
