<svg width="24" height="24" viewBox="0 0 24 24" fill="none" xmlns="http://www.w3.org/2000/svg">
<path d="M11.2579 20.9476H4.10526C3.54691 20.9476 3.01143 20.7258 2.61662 20.331C2.2218 19.9361 2 19.4007 2 18.8423V6.21073C2 5.65238 2.2218 5.1169 2.61662 4.72209C3.01143 4.32727 3.54691 4.10547 4.10526 4.10547H16.7368C17.2952 4.10547 17.8307 4.32727 18.2255 4.72209C18.6203 5.1169 18.8421 5.65238 18.8421 6.21073V10.4213" stroke="black" stroke-width="2" stroke-linecap="round" stroke-linejoin="round"/>
<path d="M14.6316 2V6.21053M6.21053 2V6.21053M2 10.4211H18.8421M13.5789 17.7895C13.5789 18.9062 14.0226 19.9771 14.8122 20.7668C15.6018 21.5564 16.6728 22 17.7895 22C18.9062 22 19.9771 21.5564 20.7668 20.7668C21.5564 19.9771 22 18.9062 22 17.7895C22 16.6728 21.5564 15.6018 20.7668 14.8122C19.9771 14.0226 18.9062 13.5789 17.7895 13.5789C16.6728 13.5789 15.6018 14.0226 14.8122 14.8122C14.0226 15.6018 13.5789 16.6728 13.5789 17.7895Z" stroke="black" stroke-width="2" stroke-linecap="round" stroke-linejoin="round"/>
<path d="M17.7891 16.2109V17.7916L18.8417 18.8425" stroke="black" stroke-width="2" stroke-linecap="round" stroke-linejoin="round"/>
</svg>
