<svg width="42" height="43" viewBox="0 0 42 43" fill="none" xmlns="http://www.w3.org/2000/svg">
<rect y="0.5" width="42" height="42" rx="21" fill="#3F8E00" fill-opacity="0.2"/>
<path d="M13.5048 26.0312C13.7304 28.892 15.9912 31.1192 20.0472 31.388V33.5H21.8472V31.3736C26.0472 31.0808 28.5 28.8344 28.5 25.58C28.5 22.6136 26.628 21.0872 23.268 20.3L21.8472 19.964V14.204C23.652 14.4104 24.7944 15.3944 25.068 16.7576H28.2264C28.0008 13.9976 25.6344 11.8424 21.8472 11.6072V9.5H20.0472V11.66C16.4616 12.0104 14.0232 14.1656 14.0232 17.2184C14.0232 19.916 15.8376 21.6344 18.8568 22.3352L20.0472 22.628V28.7336C18.204 28.4552 16.98 27.4376 16.7064 26.0312H13.5H13.5048ZM20.0328 19.532C18.2616 19.124 17.3016 18.284 17.3016 17.0264C17.3016 15.6152 18.3384 14.5592 20.0472 14.252V19.532H20.0328ZM22.1064 23.1128C24.2616 23.612 25.2504 24.4184 25.2504 25.844C25.2504 27.4712 24.0168 28.5848 21.8472 28.7912V23.0552L22.1064 23.1128Z" fill="#3F8E00"/>
</svg>
