<svg width="20" height="18" viewBox="0 0 20 18" fill="none" xmlns="http://www.w3.org/2000/svg">
<path d="M5.79883 12.2003V1L7.02553 1.62224L8.25223 1L9.47663 1.62224L10.7175 1L11.9323 1.62224L13.151 1L14.375 1.62224L15.6124 1L16.8395 1.62224L18.0658 1V9.71136" stroke="black" stroke-width="2" stroke-linejoin="round"/>
<path d="M18.0671 9.5332V13.8889C18.0671 14.714 17.7461 15.5054 17.1745 16.0888C16.6029 16.6723 15.8277 17.0001 15.0194 17.0001C14.2111 17.0001 13.436 16.6723 12.8644 16.0888C12.2928 15.5054 11.9717 14.714 11.9717 13.8889V12.0222H1.60956C1.52932 12.0214 1.44974 12.037 1.37546 12.068C1.30119 12.0991 1.23371 12.1449 1.17697 12.2028C1.12022 12.2607 1.07535 12.3296 1.04497 12.4054C1.01459 12.4812 0.999312 12.5625 1.00002 12.6444C1.00002 15.1334 1.25679 17.0001 4.04772 17.0001H15.0194" stroke="black" stroke-width="2" stroke-linejoin="round"/>
<path d="M9.00073 4.73242H15.4009M11.1341 7.93251H15.4009" stroke="black" stroke-width="2" stroke-linecap="round" stroke-linejoin="round"/>
</svg>
