<svg width="42" height="43" viewBox="0 0 42 43" fill="none" xmlns="http://www.w3.org/2000/svg">
<rect y="0.5" width="42" height="42" rx="21" fill="#FE8209" fill-opacity="0.2"/>
<path d="M29 30.5V28.5C29 27.4391 28.5786 26.4217 27.8284 25.6716C27.0783 24.9214 26.0609 24.5 25 24.5H17C15.9391 24.5 14.9217 24.9214 14.1716 25.6716C13.4214 26.4217 13 27.4391 13 28.5V30.5M25 16.5C25 18.7091 23.2091 20.5 21 20.5C18.7909 20.5 17 18.7091 17 16.5C17 14.2909 18.7909 12.5 21 12.5C23.2091 12.5 25 14.2909 25 16.5Z" stroke="#FE8209" stroke-width="2" stroke-linecap="round" stroke-linejoin="round"/>
</svg>
