<svg width="18" height="18" viewBox="0 0 18 18" fill="none" xmlns="http://www.w3.org/2000/svg">
<path d="M1.80078 4.2H3.40078M3.40078 4.2H16.2008M3.40078 4.2V15.4C3.40078 15.8243 3.56935 16.2313 3.86941 16.5314C4.16947 16.8314 4.57643 17 5.00078 17H13.0008C13.4251 17 13.8321 16.8314 14.1322 16.5314C14.4322 16.2313 14.6008 15.8243 14.6008 15.4V4.2M5.80078 4.2V2.6C5.80078 2.17565 5.96935 1.76869 6.26941 1.46863C6.56947 1.16857 6.97643 1 7.40078 1H10.6008C11.0251 1 11.4321 1.16857 11.7322 1.46863C12.0322 1.76869 12.2008 2.17565 12.2008 2.6V4.2" stroke="#FE8209" stroke-width="2" stroke-linecap="round" stroke-linejoin="round"/>
</svg>
