<svg width="18" height="18" viewBox="0 0 18 18" fill="none" xmlns="http://www.w3.org/2000/svg">
<path d="M1.80005 4.2H3.40005M3.40005 4.2H16.2M3.40005 4.2V15.4C3.40005 15.8243 3.56862 16.2313 3.86868 16.5314C4.16874 16.8314 4.5757 17 5.00005 17H13C13.4244 17 13.8314 16.8314 14.1314 16.5314C14.4315 16.2313 14.6 15.8243 14.6 15.4V4.2M5.80005 4.2V2.6C5.80005 2.17565 5.96862 1.76869 6.26868 1.46863C6.56874 1.16857 6.9757 1 7.40005 1H10.6C11.0244 1 11.4314 1.16857 11.7314 1.46863C12.0315 1.76869 12.2 2.17565 12.2 2.6V4.2" stroke="black" stroke-opacity="0.5" stroke-width="2" stroke-linecap="round" stroke-linejoin="round"/>
</svg>
